<svg aria-hidden="true" style="position: absolute; width: 0; height: 0; overflow: hidden;" version="1.1" xmlns="http://www.w3.org/2000/svg" xmlns:xlink="http://www.w3.org/1999/xlink">
<defs>
<symbol id="icon-mobile" viewBox="0 0 32 32">
<path d="M23 0h-14c-1.65 0-3 1.35-3 3v26c0 1.65 1.35 3 3 3h14c1.65 0 3-1.35 3-3v-26c0-1.65-1.35-3-3-3zM12 1.5h8v1h-8v-1zM16 30c-1.105 0-2-0.895-2-2s0.895-2 2-2 2 0.895 2 2-0.895 2-2 2zM24 24h-16v-20h16v20z"></path>
</symbol>
<symbol id="icon-mail4" viewBox="0 0 32 32">
<path d="M16 0c-8.837 0-16 7.163-16 16s7.163 16 16 16 16-7.163 16-16-7.163-16-16-16zM8 8h16c0.286 0 0.563 0.061 0.817 0.177l-8.817 10.286-8.817-10.287c0.254-0.116 0.531-0.177 0.817-0.177zM6 22v-12c0-0.042 0.002-0.084 0.004-0.125l5.864 6.842-5.8 5.8c-0.045-0.167-0.069-0.34-0.069-0.517zM24 24h-16c-0.177 0-0.35-0.024-0.517-0.069l5.691-5.691 2.826 3.297 2.826-3.297 5.691 5.691c-0.167 0.045-0.34 0.069-0.517 0.069zM26 22c0 0.177-0.024 0.35-0.069 0.517l-5.8-5.8 5.865-6.842c0.003 0.041 0.004 0.083 0.004 0.125v12z"></path>
</symbol>
<symbol id="icon-telegram" viewBox="0 0 32 32">
<path d="M16 0c-8.838 0-16 7.162-16 16s7.162 16 16 16 16-7.163 16-16-7.163-16-16-16zM23.863 10.969l-2.625 12.369c-0.181 0.881-0.712 1.087-1.45 0.681l-4-2.956-1.919 1.869c-0.225 0.219-0.4 0.4-0.8 0.4-0.519 0-0.431-0.194-0.606-0.688l-1.363-4.475-3.956-1.231c-0.856-0.262-0.862-0.85 0.194-1.269l15.412-5.95c0.7-0.319 1.381 0.169 1.113 1.25z"></path>
</symbol>
<symbol id="icon-github" viewBox="0 0 32 32">
<path d="M16 0.395c-8.836 0-16 7.163-16 16 0 7.069 4.585 13.067 10.942 15.182 0.8 0.148 1.094-0.347 1.094-0.77 0-0.381-0.015-1.642-0.022-2.979-4.452 0.968-5.391-1.888-5.391-1.888-0.728-1.849-1.776-2.341-1.776-2.341-1.452-0.993 0.11-0.973 0.11-0.973 1.606 0.113 2.452 1.649 2.452 1.649 1.427 2.446 3.743 1.739 4.656 1.33 0.143-1.034 0.558-1.74 1.016-2.14-3.554-0.404-7.29-1.777-7.29-7.907 0-1.747 0.625-3.174 1.649-4.295-0.166-0.403-0.714-2.030 0.155-4.234 0 0 1.344-0.43 4.401 1.64 1.276-0.355 2.645-0.532 4.005-0.539 1.359 0.006 2.729 0.184 4.008 0.539 3.054-2.070 4.395-1.64 4.395-1.64 0.871 2.204 0.323 3.831 0.157 4.234 1.026 1.12 1.647 2.548 1.647 4.295 0 6.145-3.743 7.498-7.306 7.895 0.574 0.497 1.085 1.47 1.085 2.963 0 2.141-0.019 3.864-0.019 4.391 0 0.426 0.288 0.925 1.099 0.768 6.354-2.118 10.933-8.113 10.933-15.18 0-8.837-7.164-16-16-16z"></path>
</symbol>
<symbol id="icon-linkedin" viewBox="0 0 32 32">
<path d="M29 0h-26c-1.65 0-3 1.35-3 3v26c0 1.65 1.35 3 3 3h26c1.65 0 3-1.35 3-3v-26c0-1.65-1.35-3-3-3zM12 26h-4v-14h4v14zM10 10c-1.106 0-2-0.894-2-2s0.894-2 2-2c1.106 0 2 0.894 2 2s-0.894 2-2 2zM26 26h-4v-8c0-1.106-0.894-2-2-2s-2 0.894-2 2v8h-4v-14h4v2.481c0.825-1.131 2.087-2.481 3.5-2.481 2.488 0 4.5 2.238 4.5 5v9z"></path>
</symbol>
<symbol id="icon-ukraine-flag-icon" viewBox="0 0 46 32">
<path fill="#005bbb" style="fill: var(--color1, #005bbb)" d="M2.525 0h40.942c1.392 0 2.525 1.133 2.525 2.525v26.942c0 1.392-1.142 2.525-2.525 2.525h-40.942c-1.383 0.008-2.525-1.125-2.525-2.517v-26.95c0-1.392 1.142-2.525 2.525-2.525v0z"></path>
<path fill="#ffd500" style="fill: var(--color2, #ffd500)" d="M0 16h46v13.475c0 1.392-1.142 2.525-2.525 2.525h-40.95c-1.383 0-2.525-1.133-2.525-2.525v-13.475z"></path>
</symbol>
<symbol id="icon-united-kingdom-flag-icon" viewBox="0 0 46 32">
<path fill="#fefefe" style="fill: var(--color3, #fefefe)" d="M2.392 32h41.217c1.325-0.075 2.392-1.183 2.392-2.525v-26.95c0-1.383-1.125-2.517-2.508-2.525h-40.983c-1.383 0.008-2.508 1.142-2.508 2.525v26.942c0 1.35 1.067 2.458 2.392 2.533v0z"></path>
<path fill="#c8102e" style="fill: var(--color4, #c8102e)" d="M19.783 19.192v12.808h6.4v-12.808h19.817v-6.4h-19.817v-12.792h-6.4v12.792h-19.783v6.4h19.783z"></path>
<path fill="#012169" style="fill: var(--color5, #012169)" d="M28.317 10.358v-10.358h15.192c1.050 0.017 1.95 0.675 2.317 1.6l-17.508 8.758z"></path>
<path fill="#012169" style="fill: var(--color5, #012169)" d="M28.317 21.642v10.358h15.292c1.008-0.058 1.858-0.708 2.217-1.6l-17.508-8.758z"></path>
<path fill="#012169" style="fill: var(--color5, #012169)" d="M17.65 21.642v10.358h-15.258c-1.008-0.058-1.867-0.708-2.217-1.617l17.475-8.742z"></path>
<path fill="#012169" style="fill: var(--color5, #012169)" d="M17.65 10.358v-10.358h-15.158c-1.050 0.017-1.958 0.683-2.317 1.617l17.475 8.742z"></path>
<path fill="#012169" style="fill: var(--color5, #012169)" d="M0 10.667h6.375l-6.375-3.192v3.192z"></path>
<path fill="#012169" style="fill: var(--color5, #012169)" d="M46 10.667h-6.408l6.408-3.208v3.208z"></path>
<path fill="#012169" style="fill: var(--color5, #012169)" d="M46 21.333h-6.408l6.408 3.208v-3.208z"></path>
<path fill="#012169" style="fill: var(--color5, #012169)" d="M0 21.333h6.375l-6.375 3.192v-3.192z"></path>
<path fill="#c8102e" style="fill: var(--color4, #c8102e)" d="M46 2.708l-15.875 7.958h3.55l12.325-6.167v-1.792z"></path>
<path fill="#c8102e" style="fill: var(--color4, #c8102e)" d="M15.842 21.333h-3.55l-12.292 6.15v1.792l15.875-7.942h-0.033z"></path>
<path fill="#c8102e" style="fill: var(--color4, #c8102e)" d="M8.767 10.675h3.55l-12.317-6.167v1.783l8.767 4.383z"></path>
<path fill="#c8102e" style="fill: var(--color4, #c8102e)" d="M37.192 21.325h-3.55l12.358 6.192v-1.783l-8.808-4.408z"></path>
</symbol>
</defs>
</svg>
